<svg xmlns="http://www.w3.org/2000/svg" xmlns:xlink="http://www.w3.org/1999/xlink" width="41" height="33" viewBox="0 0 41 33">
    <defs>
        <path id="a" d="M0 0h56v56H0z"/>
    </defs>
    <g fill="none" fill-rule="evenodd" transform="translate(-7 -11)">
        <mask id="b" fill="#fff">
            <use xlink:href="#a"/>
        </mask>
        <g fill-rule="nonzero" mask="url(#b)">
            <path fill="#D4A8B4" d="M29.232 15.835a1.855 1.855 0 1 1-3.71 0c0-1.529 1.342-3.446 1.855-3.446.539 0 1.855 1.917 1.855 3.446z"/>
            <g fill="#3C1146">
                <path d="M27.079 18.805c-1.474 0-2.673-1.333-2.673-2.97 0-1.193.504-2.309.804-2.868.603-1.124 1.232-1.693 1.869-1.693 1.378 0 2.673 2.845 2.673 4.56 0 1.638-1.2 2.971-2.673 2.971zm.005-4.961c-.313.51-.671 1.335-.671 1.99 0 .409.299.741.666.741.367 0 .666-.332.666-.74 0-.662-.352-1.486-.661-1.991z"/>
                <path d="M28.717 24.88h-2.98a1.694 1.694 0 0 1-1.692-1.692v-4.13c0-.932.759-1.69 1.692-1.69h2.98c.933 0 1.692.758 1.692 1.69v4.13c0 .933-.76 1.692-1.692 1.692zm-2.542-2.13h2.104v-3.253h-2.104v3.253z"/>
                <path d="M37.914 25.252H16.84a1.115 1.115 0 0 1 0-2.23h21.074a1.115 1.115 0 0 1 0 2.23zM34.675 43.761c-.616 0-1.115-.499-1.115-1.115v-8.548a1.115 1.115 0 0 1 2.23 0v8.548c0 .616-.5 1.115-1.115 1.115z"/>
                <path d="M20.079 30.79c-.616 0-1.115-.5-1.115-1.115v-5.538c0-.616.499-1.115 1.115-1.115h14.596c.616 0 1.115.5 1.115 1.115v5.316a1.115 1.115 0 0 1-2.23 0v-4.201H21.194v4.423c0 .616-.5 1.115-1.115 1.115zM20.079 43.761c-.616 0-1.115-.499-1.115-1.115v-8.473a1.115 1.115 0 0 1 2.23 0v8.473c0 .616-.5 1.115-1.115 1.115z"/>
            </g>
            <path fill="#D4A8B4" d="M46.639 31.98h-4.46V15.634a2.314 2.314 0 0 1 2.313-2.314c1.186 0 2.147.96 2.147 2.146V31.98z"/>
            <g fill="#3C1146">
                <path d="M46.639 33.094h-4.46c-.616 0-1.115-.5-1.115-1.115V15.635a3.433 3.433 0 0 1 3.428-3.43 3.265 3.265 0 0 1 3.262 3.262V31.98c0 .616-.5 1.115-1.115 1.115zm-3.345-2.23h2.23V15.467c0-.569-.463-1.031-1.032-1.031a1.2 1.2 0 0 0-1.198 1.199v15.23z"/>
                <path d="M46.639 33.094h-7.304a1.115 1.115 0 0 1 0-2.23h7.304a1.115 1.115 0 0 1 0 2.23z"/>
                <path d="M46.639 43.761c-.616 0-1.115-.499-1.115-1.115V25.81a1.115 1.115 0 0 1 2.23 0v16.837c0 .616-.5 1.115-1.115 1.115zM39.335 43.761c-.616 0-1.115-.499-1.115-1.115V31.98a1.115 1.115 0 1 1 2.229 0v10.667c0 .616-.499 1.115-1.114 1.115z"/>
            </g>
            <path fill="#D4A8B4" d="M8.115 31.98h4.46V15.634a2.314 2.314 0 0 0-2.314-2.314 2.147 2.147 0 0 0-2.146 2.146V31.98z"/>
            <g fill="#3C1146">
                <path d="M12.575 33.094h-4.46c-.616 0-1.115-.5-1.115-1.115V15.467a3.265 3.265 0 0 1 3.261-3.261 3.433 3.433 0 0 1 3.43 3.429v16.344c0 .616-.5 1.115-1.116 1.115zm-3.345-2.23h2.23v-15.23a1.2 1.2 0 0 0-1.199-1.198c-.568 0-1.03.462-1.03 1.031v15.397z"/>
                <path d="M15.418 33.094H8.115a1.115 1.115 0 0 1 0-2.23h7.303a1.115 1.115 0 0 1 0 2.23z"/>
                <path d="M8.115 43.761c-.616 0-1.115-.499-1.115-1.115V25.81a1.115 1.115 0 0 1 2.23 0v16.837c0 .616-.5 1.115-1.115 1.115zM15.418 43.761c-.616 0-1.115-.499-1.115-1.115V31.98a1.115 1.115 0 0 1 2.23 0v10.667c0 .616-.499 1.115-1.115 1.115z"/>
            </g>
        </g>
    </g>
</svg>
