<svg xmlns="http://www.w3.org/2000/svg" width="36" height="38" viewBox="0 0 36 38">
    <defs>
        <linearGradient id="a" x1=".55%" x2="97.3%" y1=".55%" y2="97.3%">
            <stop offset="0%" stop-color="#04B261"/>
            <stop offset="100%" stop-color="#029E55"/>
        </linearGradient>
    </defs>
    <g fill="url(#a)" fill-rule="evenodd" transform="translate(-325 -271)">
        <path d="M344.014 294.58a2.209 2.209 0 0 0 1.618-.906l5.811-8.034a.62.62 0 0 0-.867-.868l-8.035 5.814a2.21 2.21 0 0 0 1.474 3.994zm-1.14-2.281a.969.969 0 0 1 .396-.709l4.902-3.546-3.545 4.9a.971.971 0 0 1-1.752-.645z"/>
        <path d="M357.918 283.143c-.007-.013-.007-.027-.013-.04-.008-.012-.02-.019-.028-.03a16.874 16.874 0 0 0-2.212-2.985l1.333-1.333.877.878 2.633-2.634-2.633-2.633-2.633 2.633.878.878-1.333 1.333a16.854 16.854 0 0 0-2.985-2.214c-.012-.008-.019-.02-.031-.027-.013-.007-.027-.007-.04-.013a16.641 16.641 0 0 0-6.376-2.113v-.74h.93c.857 0 1.553-.695 1.553-1.551S347.14 271 346.285 271H340.7a1.553 1.553 0 0 0 0 3.103h.931v.718c-.67.071-1.34.18-2.001.332a.62.62 0 1 0 .277 1.21c.572-.131 1.148-.23 1.726-.296l.666-.052c.204-.015.391-.027.574-.035v1.227a.62.62 0 1 0 1.24 0v-1.223c2.335.108 4.535.734 6.49 1.766l-.611 1.06a.62.62 0 0 0 1.075.62l.61-1.057a15.638 15.638 0 0 1 4.824 4.824l-1.057.61a.62.62 0 0 0 .622 1.075l1.06-.612a15.405 15.405 0 0 1 1.768 6.591h-1.226a.62.62 0 1 0 0 1.242h1.226a15.405 15.405 0 0 1-1.769 6.59l-1.06-.611a.62.62 0 1 0-.62 1.075l1.057.61a15.638 15.638 0 0 1-4.824 4.824l-.61-1.057a.62.62 0 1 0-1.075.62l.612 1.06a15.396 15.396 0 0 1-6.49 1.766v-1.221a.62.62 0 1 0-1.241 0v1.226a15.663 15.663 0 0 1-2.965-.383.62.62 0 1 0-.277 1.21c1.239.285 2.504.43 3.76.43l.09-.003.011.002c.005 0 .01-.003.014-.003a16.65 16.65 0 0 0 8.205-2.217c.02-.01.04-.013.059-.025.012-.007.019-.019.03-.027a16.881 16.881 0 0 0 6.067-6.059c.012-.016.026-.03.037-.048.007-.013.007-.027.013-.04a16.64 16.64 0 0 0 2.233-8.34c0-3.034-.815-5.88-2.232-8.339zm-.043-7.022l.877.878-.877.878-.878-.878.878-.878zm-15.003-1.384v-1.875h-2.173c-.17 0-.31-.14-.31-.31 0-.171.14-.31.31-.31h5.586c.171 0 .31.139.31.31 0 .17-.139.31-.31.31h-2.172v1.875a15.431 15.431 0 0 0-.62-.013l-.055.001h-.047c-.102 0-.204.006-.305.008-.072.002-.14.001-.214.004zM337.906 279.69h-3.103a.62.62 0 1 0 0 1.241h3.103a.62.62 0 1 0 0-1.241zM337.906 284.034h-6.207a.62.62 0 1 0 0 1.242h6.207a.62.62 0 1 0 0-1.242zM337.906 288.38h-9.31a.62.62 0 1 0 0 1.24h9.31a.62.62 0 1 0 0-1.24zM337.906 292.724h-11.793a.62.62 0 1 0 0 1.242h11.793a.62.62 0 1 0 0-1.242zM337.906 297.069h-8.069a.62.62 0 1 0 0 1.241h8.069a.62.62 0 1 0 0-1.241zM337.906 301.414h-4.345a.62.62 0 1 0 0 1.241h4.345a.62.62 0 1 0 0-1.241z"/>
    </g>
</svg>
