<?xml version="1.0" encoding="UTF-8"?>
<svg width="62px" height="43px" viewBox="0 0 62 43" version="1.1" xmlns="http://www.w3.org/2000/svg" xmlns:xlink="http://www.w3.org/1999/xlink">
    <!-- Generator: Sketch 42 (36781) - http://www.bohemiancoding.com/sketch -->
    <title>Preorder</title>
    <desc>Created with Sketch.</desc>
    <defs></defs>
    <g id="Page-1" stroke="none" stroke-width="1" fill="none" fill-rule="evenodd" opacity="0.319999993">
        <g id="Outlet-Manager_Time_Pre-Order" transform="translate(-321.000000, -407.000000)" fill="#000000">
            <g id="Preorder" transform="translate(321.000000, 407.000000)">
                <g id="hourglass-(3)">
                    <g id="Capa_1">
                        <g id="Group">
                            <ellipse id="Oval" cx="21.4615385" cy="36" rx="0.692307692" ry="0.692307692"></ellipse>
                            <circle id="Oval" cx="24.2307692" cy="36" r="0.692307692"></circle>
                            <circle id="Oval" cx="27" cy="36" r="0.692307692"></circle>
                            <ellipse id="Oval" cx="20.0769231" cy="22.8461538" rx="0.692307692" ry="0.692307692"></ellipse>
                            <ellipse id="Oval" cx="21.4615385" cy="15.2307692" rx="0.692307692" ry="0.692307692"></ellipse>
                            <ellipse id="Oval" cx="24.2307692" cy="15.2307692" rx="0.692307692" ry="0.692307692"></ellipse>
                            <ellipse id="Oval" cx="22.8461538" cy="13.8461538" rx="0.692307692" ry="0.692307692"></ellipse>
                            <ellipse id="Oval" cx="24.2307692" cy="12.4615385" rx="0.692307692" ry="0.692307692"></ellipse>
                            <ellipse id="Oval" cx="21.4615385" cy="18" rx="0.692307692" ry="0.692307692"></ellipse>
                            <ellipse id="Oval" cx="20.0769231" cy="16.6153846" rx="0.692307692" ry="0.692307692"></ellipse>
                            <circle id="Oval" cx="22.8461538" cy="16.6153846" r="0.692307692"></circle>
                            <ellipse id="Oval" cx="20.0769231" cy="24.9230769" rx="0.692307692" ry="0.692307692"></ellipse>
                            <circle id="Oval" cx="20.0769231" cy="27" r="0.692307692"></circle>
                            <circle id="Oval" cx="20.0769231" cy="29.0769231" r="0.692307692"></circle>
                            <circle id="Oval" cx="20.0769231" cy="31.1538462" r="0.692307692"></circle>
                            <ellipse id="Oval" cx="20.0769231" cy="33.2307692" rx="0.692307692" ry="0.692307692"></ellipse>
                            <ellipse id="Oval" cx="22.8461538" cy="34.6153846" rx="0.692307692" ry="0.692307692"></ellipse>
                            <ellipse id="Oval" cx="25.6153846" cy="34.6153846" rx="0.692307692" ry="0.692307692"></ellipse>
                            <path d="M13.8461538,7.61538462 L10.3846154,7.61538462 C10.0024615,7.61538462 9.69230769,7.92484615 9.69230769,8.30769231 C9.69230769,8.69053846 10.0024615,9 10.3846154,9 L13.8461538,9 C14.2283077,9 14.5384615,8.69053846 14.5384615,8.30769231 C14.5384615,7.92484615 14.2283077,7.61538462 13.8461538,7.61538462 Z" id="Shape"></path>
                            <path d="M13.8461538,12.4615385 L6.92307692,12.4615385 C6.54092308,12.4615385 6.23076923,12.771 6.23076923,13.1538462 C6.23076923,13.5366923 6.54092308,13.8461538 6.92307692,13.8461538 L13.8461538,13.8461538 C14.2283077,13.8461538 14.5384615,13.5366923 14.5384615,13.1538462 C14.5384615,12.771 14.2283077,12.4615385 13.8461538,12.4615385 Z" id="Shape"></path>
                            <path d="M13.8461538,17.3076923 L3.46153846,17.3076923 C3.07938462,17.3076923 2.76923077,17.6171538 2.76923077,18 C2.76923077,18.3828462 3.07938462,18.6923077 3.46153846,18.6923077 L13.8461538,18.6923077 C14.2283077,18.6923077 14.5384615,18.3828462 14.5384615,18 C14.5384615,17.6171538 14.2283077,17.3076923 13.8461538,17.3076923 Z" id="Shape"></path>
                            <path d="M13.8461538,22.1538462 L0.692307692,22.1538462 C0.310153846,22.1538462 0,22.4633077 0,22.8461538 C0,23.229 0.310153846,23.5384615 0.692307692,23.5384615 L13.8461538,23.5384615 C14.2283077,23.5384615 14.5384615,23.229 14.5384615,22.8461538 C14.5384615,22.4633077 14.2283077,22.1538462 13.8461538,22.1538462 Z" id="Shape"></path>
                            <path d="M13.8461538,27 L4.84615385,27 C4.464,27 4.15384615,27.3094615 4.15384615,27.6923077 C4.15384615,28.0751538 4.464,28.3846154 4.84615385,28.3846154 L13.8461538,28.3846154 C14.2283077,28.3846154 14.5384615,28.0751538 14.5384615,27.6923077 C14.5384615,27.3094615 14.2283077,27 13.8461538,27 Z" id="Shape"></path>
                            <path d="M13.8461538,31.8461538 L9,31.8461538 C8.61784615,31.8461538 8.30769231,32.1556154 8.30769231,32.5384615 C8.30769231,32.9213077 8.61784615,33.2307692 9,33.2307692 L13.8461538,33.2307692 C14.2283077,33.2307692 14.5384615,32.9213077 14.5384615,32.5384615 C14.5384615,32.1556154 14.2283077,31.8461538 13.8461538,31.8461538 Z" id="Shape"></path>
                            <path d="M33.9230769,37.3846154 L30.4615385,37.3846154 L30.4615385,33.2307692 C30.4615385,27.9754615 27.5905385,23.2338462 23.0441538,20.7692308 C27.5905385,18.3046154 30.4615385,13.563 30.4615385,8.30769231 L30.4615385,4.15384615 L33.9230769,4.15384615 C35.0681538,4.15384615 36,3.222 36,2.07692308 C36,0.931846154 35.0681538,0 33.9230769,0 L18,0 C17.6178462,0 17.3076923,0.309461538 17.3076923,0.692307692 C17.3076923,1.07515385 17.6178462,1.38461538 18,1.38461538 L33.9230769,1.38461538 C34.3045385,1.38461538 34.6153846,1.69476923 34.6153846,2.07692308 C34.6153846,2.45907692 34.3045385,2.76923077 33.9230769,2.76923077 L30.4615385,2.76923077 L18,2.76923077 C17.6178462,2.76923077 17.3076923,3.07869231 17.3076923,3.46153846 C17.3076923,3.84438462 17.6178462,4.15384615 18,4.15384615 L29.0769231,4.15384615 L29.0769231,8.30769231 C29.0769231,13.4937692 25.9843846,18.1336154 21.1977692,20.1288462 C21.1970769,20.1288462 21.1970769,20.1288462 21.1963846,20.1295385 C21.1963846,20.1295385 21.1956923,20.1302308 21.195,20.1302308 C21.1873846,20.1336923 21.1825385,20.1399231 21.1749231,20.1440769 C21.1008462,20.178 21.0309231,20.2223077 20.9720769,20.2811538 C20.9236154,20.3296154 20.8910769,20.3884615 20.8599231,20.448 C20.8488462,20.4680769 20.8315385,20.4819231 20.8225385,20.5033846 L20.8225385,20.5047692 C20.7879231,20.5885385 20.7699231,20.6785385 20.7699231,20.7699231 C20.7699231,20.8613077 20.7879231,20.9513077 20.8218462,21.0343846 C20.8218462,21.0343846 20.8218462,21.0357692 20.8225385,21.0364615 C20.8543846,21.1133077 20.9014615,21.1783846 20.9554615,21.2365385 C20.9706923,21.2524615 20.988,21.2649231 21.0046154,21.2801538 C21.0523846,21.3230769 21.1036154,21.3576923 21.1603846,21.3853846 C21.1735385,21.3916154 21.1818462,21.4033846 21.1956923,21.4089231 C25.983,23.4034615 29.0769231,28.044 29.0769231,33.2307692 L29.0769231,37.3846154 C29.0769231,37.0024615 28.7667692,36.6923077 28.3846154,36.6923077 C28.0024615,36.6923077 27.6923077,37.0024615 27.6923077,37.3846154 L26.3076923,37.3846154 C26.3076923,37.0024615 25.9975385,36.6923077 25.6153846,36.6923077 C25.2332308,36.6923077 24.9230769,37.0024615 24.9230769,37.3846154 L23.5384615,37.3846154 C23.5384615,37.0024615 23.2283077,36.6923077 22.8461538,36.6923077 C22.464,36.6923077 22.1538462,37.0024615 22.1538462,37.3846154 L20.7692308,37.3846154 C20.7692308,37.0024615 20.4590769,36.6923077 20.0769231,36.6923077 C19.6947692,36.6923077 19.3846154,37.0024615 19.3846154,37.3846154 L18,37.3846154 C17.6178462,37.3846154 17.3076923,37.6940769 17.3076923,38.0769231 C17.3076923,38.4597692 17.6178462,38.7692308 18,38.7692308 L30.4615385,38.7692308 L33.9230769,38.7692308 C34.3045385,38.7692308 34.6153846,39.0793846 34.6153846,39.4615385 C34.6153846,39.8436923 34.3045385,40.1538462 33.9230769,40.1538462 L18,40.1538462 C17.6178462,40.1538462 17.3076923,40.4633077 17.3076923,40.8461538 C17.3076923,41.229 17.6178462,41.5384615 18,41.5384615 L33.9230769,41.5384615 C35.0681538,41.5384615 36,40.6066154 36,39.4615385 C36,38.3164615 35.0681538,37.3846154 33.9230769,37.3846154 Z" id="Shape"></path>
                        </g>
                    </g>
                </g>
                <g id="scooter" transform="translate(34.000000, 23.000000)">
                    <g id="Layer_1">
                        <g id="Group">
                            <path d="M24.6436285,12.5788337 C24.2653564,12.5788337 23.9019006,12.642635 23.5623931,12.7585659 L23.1000605,11.8338402 C23.583378,11.6510238 24.1041901,11.5507559 24.6436285,11.5507559 C25.2529762,11.5507559 25.8426091,11.6732181 26.3960778,11.9148769 C26.6255205,12.0149028 26.8930022,11.9101598 26.9932095,11.6806566 C27.0934168,11.4510324 26.9885529,11.1836717 26.7589892,11.0834644 C26.0903153,10.7916112 25.3786436,10.6436285 24.6436285,10.6436285 C23.9598359,10.6436285 23.3006566,10.7769762 22.6928812,11.0194816 L21.0125788,7.65887689 C21.0920432,7.6727257 21.1736242,7.68034557 21.2570194,7.68034557 L22.224622,7.68034557 C22.4751102,7.68034557 22.6781857,7.47733045 22.6781857,7.22678186 L22.6781857,5.29157667 C22.6781857,5.04102808 22.4751102,4.83801296 22.224622,4.83801296 L21.2570194,4.83801296 C20.7051231,4.83801296 20.2260389,5.15441901 19.99073,5.61523974 L19.5111015,4.65598272 C19.268838,4.17139525 18.7817106,3.87041037 18.2399741,3.87041037 L17.3866091,3.87041037 C17.136121,3.87041037 16.9330454,4.07342549 16.9330454,4.32397408 C16.9330454,4.57452268 17.136121,4.7775378 17.3866091,4.7775378 L18.2399741,4.7775378 C18.4359136,4.7775378 18.6121382,4.88645356 18.6997667,5.06171058 L19.8744363,7.4109892 L19.6538834,7.5212959 C19.1692959,7.7635594 18.8682505,8.25062635 18.8682505,8.79242333 L18.8682505,13.5464363 L14.9676026,13.5464363 C14.1506436,13.5464363 13.4859611,12.8818143 13.4859611,12.0647948 L13.4859611,10.0993521 L13.5161987,10.0993521 C14.2998359,10.0993521 14.937365,9.46182289 14.937365,8.67818575 C14.937365,7.8945486 14.2998359,7.25701944 13.5161987,7.25701944 L9.64578834,7.25701944 C9.25723542,7.25701944 8.90478618,7.41389201 8.64794816,7.66746436 L8.64794816,0.937365011 C8.64794816,0.420483801 8.22746436,0 7.71058315,0 L0.937365011,0 C0.420483801,0 0,0.420483801 0,0.937365011 L0,7.71058315 C0,8.22746436 0.420483801,8.64794816 0.937365011,8.64794816 L1.95540389,8.64794816 C1.93399568,8.74089849 1.92232397,8.83669114 1.92389633,8.93460043 C1.93405616,9.57684665 2.46484665,10.0993521 3.10715335,10.0993521 L5.54563283,10.0993521 C5.23896328,10.2951706 4.97625918,10.502419 4.75764147,10.6989028 C3.7527257,11.6019784 3.21570626,12.6780734 3.04825054,13.384 C2.95796112,13.7646911 3.04462203,14.1577797 3.28609935,14.462635 C3.52425054,14.763378 3.88099352,14.9356112 4.26513175,14.9356112 L4.26761123,14.9356112 L4.50660907,14.9351879 C4.40628078,15.2573391 4.35421166,15.5946091 4.35421166,15.9352052 C4.35421166,17.7859266 5.85986177,19.2915767 7.71058315,19.2915767 C9.40739525,19.2915767 10.8132613,18.0255896 11.0354471,16.3887689 L19.8056156,16.3887689 C20.0561037,16.3887689 20.2591793,16.1857538 20.2591793,15.9352052 C20.2591793,15.6396631 20.2886911,15.3444233 20.3469287,15.0577711 C20.5891922,13.8643542 21.3127775,12.8636717 22.2892095,12.2404752 L22.7514212,13.1648985 C21.868121,13.7701339 21.287257,14.7859957 21.287257,15.9352052 C21.287257,17.7859266 22.7929071,19.2915767 24.6436285,19.2915767 C26.4943499,19.2915767 28,17.7859266 28,15.9352052 C28,14.0844838 26.4943499,12.5788337 24.6436285,12.5788337 Z M9.64578834,8.16414687 L13.5161987,8.16414687 C13.7996458,8.16414687 14.0302376,8.39473866 14.0302376,8.67818575 C14.0302376,8.96163283 13.7996458,9.19222462 13.5161987,9.19222462 L9.64578834,9.19222462 C9.36234125,9.19222462 9.13174946,8.96163283 9.13174946,8.67818575 C9.13174946,8.39473866 9.36234125,8.16414687 9.64578834,8.16414687 Z M0.90712743,0.937365011 C0.90712743,0.920734341 0.920673866,0.90712743 0.937365011,0.90712743 L7.71058315,0.90712743 C7.7272743,0.90712743 7.74082073,0.920734341 7.74082073,0.937365011 L7.74082073,1.93520518 L0.90712743,1.93520518 L0.90712743,0.937365011 Z M0.937365011,7.74082073 C0.920673866,7.74082073 0.90712743,7.72721382 0.90712743,7.71058315 L0.90712743,2.84233261 L7.74082073,2.84233261 L7.74082073,7.71058315 C7.74082073,7.72721382 7.7272743,7.74082073 7.71058315,7.74082073 L0.937365011,7.74082073 Z M3.10715335,9.19222462 C2.95723542,9.19222462 2.83332181,9.07024622 2.83096328,8.92032829 C2.82975378,8.84564147 2.85805616,8.7751879 2.91048812,8.72196976 C2.94737797,8.68459611 2.99321814,8.6598013 3.0429892,8.64794816 L8.22540821,8.64939957 C8.22522678,8.65901512 8.22468251,8.66850972 8.22468251,8.67818575 C8.22468251,8.85942981 8.25915335,9.03269114 8.32126134,9.19222462 L3.10715335,9.19222462 Z M4.26591793,14.0285443 L4.26519222,14.0285443 C4.12107991,14.0285443 4.03544708,13.947689 3.99722678,13.8994298 C3.92931317,13.813676 3.90518359,13.7021598 3.930946,13.5934255 C4.26519222,12.1843542 6.00512311,10.0993521 8.67818575,10.0993521 C10.75327,10.0993521 11.5265659,12.082514 11.5265659,13.3325961 C11.5265659,13.6716199 11.3393952,14.0152397 10.9816242,14.015905 L4.26591793,14.0285443 Z M8.22462203,15.9352052 C8.22462203,16.2186523 7.99403024,16.4492441 7.71058315,16.4492441 C7.42713607,16.4492441 7.19654428,16.2186523 7.19654428,15.9352052 C7.19654428,15.6517581 7.42713607,15.4211663 7.71058315,15.4211663 C7.99403024,15.4211663 8.22462203,15.6517581 8.22462203,15.9352052 Z M7.71058315,18.3844492 C6.36005184,18.3844492 5.26133909,17.2857365 5.26133909,15.9352052 C5.26133909,15.5883801 5.33596544,15.2468164 5.47638877,14.9333737 L6.70584881,14.9310756 C6.44870842,15.1883974 6.28941685,15.5435076 6.28941685,15.9352052 C6.28941685,16.7188423 6.926946,17.3563715 7.71058315,17.3563715 C8.4942203,17.3563715 9.13174946,16.7188423 9.13174946,15.9352052 C9.13174946,15.5415724 8.97082505,15.1848898 8.71138661,14.9272657 L9.9409676,14.9249071 C10.0838704,15.2405875 10.1598272,15.5851749 10.1598272,15.9351447 C10.1598272,17.2857365 9.06111447,18.3844492 7.71058315,18.3844492 Z M19.4579438,14.8773132 C19.4175464,15.076095 19.3886393,15.2781425 19.3712829,15.4816415 L11.0359914,15.4816415 C11.0101685,15.2919914 10.9680778,15.1051231 10.9106263,14.9231533 L10.9831965,14.9230324 C11.8100734,14.9215205 12.4336328,14.2377883 12.4336328,13.3325961 C12.4336328,12.3511447 12.1070065,11.3565702 11.5374514,10.6040173 C11.4125097,10.4389201 11.2607775,10.2657192 11.0795335,10.0993521 L12.5788337,10.0993521 L12.5788337,12.0647948 C12.5788337,13.3819438 13.6504536,14.4535637 14.9676026,14.4535637 L19.3218143,14.4535637 C19.422324,14.4535637 19.5149114,14.4204838 19.5900821,14.365149 C19.5381339,14.5323629 19.4933218,14.7029028 19.4579438,14.8773132 Z M21.2570194,5.74514039 L21.7710583,5.74514039 L21.7710583,6.77321814 L21.2570194,6.77321814 C20.9735724,6.77321814 20.7429806,6.54262635 20.7429806,6.25917927 C20.7429806,5.97573218 20.9735724,5.74514039 21.2570194,5.74514039 Z M19.775378,13.8616933 L19.775378,8.79236285 C19.775378,8.59642333 19.8842333,8.42025918 20.0595508,8.33257019 L20.2801037,8.2222635 L21.8820907,11.4261771 C20.9559741,11.9947041 20.211162,12.8415378 19.775378,13.8616933 Z M24.6436285,18.3844492 C23.2930972,18.3844492 22.1943844,17.2857365 22.1943844,15.9352052 C22.1943844,14.5846739 23.2930972,13.4859611 24.6436285,13.4859611 C25.9941598,13.4859611 27.0928726,14.5846739 27.0928726,15.9352052 C27.0928726,17.2857365 25.9941598,18.3844492 24.6436285,18.3844492 Z" id="Shape"></path>
                            <path d="M24.6436285,14.5140389 C23.8599914,14.5140389 23.2224622,15.151568 23.2224622,15.9352052 C23.2224622,16.7188423 23.8599914,17.3563715 24.6436285,17.3563715 C25.4272657,17.3563715 26.0647948,16.7188423 26.0647948,15.9352052 C26.0647948,15.151568 25.4272657,14.5140389 24.6436285,14.5140389 Z M24.6436285,16.4492441 C24.3601814,16.4492441 24.1295896,16.2186523 24.1295896,15.9352052 C24.1295896,15.6517581 24.3601814,15.4211663 24.6436285,15.4211663 C24.9270756,15.4211663 25.1576674,15.6517581 25.1576674,15.9352052 C25.1576674,16.2186523 24.9270756,16.4492441 24.6436285,16.4492441 Z" id="Shape"></path>
                        </g>
                    </g>
                </g>
            </g>
        </g>
    </g>
</svg>