<svg xmlns="http://www.w3.org/2000/svg" xmlns:xlink="http://www.w3.org/1999/xlink" width="50" height="34" viewBox="0 0 50 34">
    <defs>
        <path id="a" d="M0 0h56v56H0z"/>
    </defs>
    <g fill="none" fill-rule="evenodd" transform="translate(-4 -11)">
        <mask id="b" fill="#fff">
            <use xlink:href="#a"/>
        </mask>
        <g mask="url(#b)">
            <path fill="#3C1146" fill-rule="nonzero" d="M47.326 33.213c-.662 0-1.298.112-1.892.314l-.809-1.618a7.625 7.625 0 0 1 2.701-.495c1.067 0 2.099.214 3.067.637a.794.794 0 0 0 .635-1.455 9.198 9.198 0 0 0-3.702-.77 9.2 9.2 0 0 0-3.413.658l-2.941-5.881c.14.024.282.038.428.038h1.693a.794.794 0 0 0 .794-.794V20.46a.794.794 0 0 0-.794-.793H41.4a2.49 2.49 0 0 0-2.216 1.36l-.84-1.679a2.473 2.473 0 0 0-2.224-1.375h-1.493a.794.794 0 1 0 0 1.588h1.493c.343 0 .651.19.805.497l2.055 4.111-.386.193a2.473 2.473 0 0 0-1.375 2.225v8.32h-6.826a2.596 2.596 0 0 1-2.593-2.594v-3.44h.053a2.49 2.49 0 0 0 2.487-2.486 2.49 2.49 0 0 0-2.487-2.487H21.08c-.68 0-1.297.274-1.746.718V12.84c0-.904-.736-1.64-1.64-1.64H5.84c-.904 0-1.64.736-1.64 1.64v11.854c0 .904.736 1.64 1.64 1.64h1.782c-.038.163-.058.33-.055.502a2.08 2.08 0 0 0 2.07 2.038h4.268a10.61 10.61 0 0 0-1.38 1.05c-1.758 1.58-2.698 3.463-2.99 4.698a2.203 2.203 0 0 0 .416 1.888 2.173 2.173 0 0 0 1.713.827h.423a5.88 5.88 0 0 0 5.607 7.624c2.969 0 5.43-2.216 5.818-5.08H38.86a.794.794 0 0 0 .794-.794c0-.518.051-1.034.153-1.536a7.663 7.663 0 0 1 3.4-4.93l.808 1.618a5.871 5.871 0 0 0-2.562 4.848 5.88 5.88 0 0 0 5.873 5.873 5.88 5.88 0 0 0 5.874-5.873 5.88 5.88 0 0 0-5.874-5.874zM21.08 25.487h6.773a.9.9 0 0 1 0 1.8H21.08a.9.9 0 0 1 0-1.8zM5.787 12.84c0-.029.024-.053.053-.053h11.854c.029 0 .052.024.052.053v1.747H5.787V12.84zm.053 11.906a.053.053 0 0 1-.053-.052v-8.52h11.96v8.52c0 .029-.024.052-.053.052H5.84zm3.798 2.54a.486.486 0 0 1-.345-.823.48.48 0 0 1 .232-.13l9.07.003-.002.05c0 .318.06.621.17.9H9.637zm2.027 8.464a.588.588 0 0 1-.47-.226.625.625 0 0 1-.116-.536c.585-2.465 3.63-6.114 8.308-6.114 3.631 0 4.984 3.47 4.984 5.658 0 .593-.327 1.195-.953 1.196l-11.753.022zm6.928 3.337a.9.9 0 0 1-1.799 0 .9.9 0 0 1 1.8 0zm-.9 4.286a4.291 4.291 0 0 1-4.286-4.286c0-.607.13-1.205.377-1.754l2.151-.004a2.48 2.48 0 0 0-.729 1.758 2.49 2.49 0 0 0 2.488 2.487 2.49 2.49 0 0 0 2.487-2.487 2.48 2.48 0 0 0-.736-1.764l2.152-.004a4.29 4.29 0 0 1 .383 1.768 4.291 4.291 0 0 1-4.286 4.286zm20.558-6.138c-.07.348-.12.702-.151 1.058H23.513a5.883 5.883 0 0 0-.22-.977h.128c1.447-.003 2.538-1.2 2.538-2.784 0-1.717-.572-3.458-1.568-4.775a6.634 6.634 0 0 0-.802-.883h2.624v3.44a4.185 4.185 0 0 0 4.18 4.18h7.62a.79.79 0 0 0 .47-.155c-.091.293-.17.591-.232.896zM41.4 21.254h.9v1.8h-.9a.9.9 0 0 1 0-1.8zm-2.593 14.204v-8.871c0-.343.19-.652.497-.805l.386-.193 2.804 5.607a9.297 9.297 0 0 0-3.687 4.262zm8.52 7.915a4.291 4.291 0 0 1-4.287-4.286 4.291 4.291 0 0 1 4.286-4.287 4.291 4.291 0 0 1 4.287 4.287 4.291 4.291 0 0 1-4.287 4.286z"/>
            <path fill="#D4A8B4" d="M47.326 43.373a4.291 4.291 0 0 1-4.286-4.286 4.291 4.291 0 0 1 4.286-4.287 4.291 4.291 0 0 1 4.287 4.287 4.291 4.291 0 0 1-4.287 4.286z"/>
            <path fill="#3C1146" fill-rule="nonzero" d="M47.326 36.6a2.49 2.49 0 0 0-2.487 2.487 2.49 2.49 0 0 0 2.487 2.487 2.49 2.49 0 0 0 2.487-2.487 2.49 2.49 0 0 0-2.487-2.487zm0 3.386a.9.9 0 0 1 0-1.799.9.9 0 0 1 0 1.8z"/>
            <path fill="#D4A8B4" d="M5.787 12.84c0-.029.024-.053.053-.053h11.854c.029 0 .052.024.052.053v1.747H5.787V12.84zM17.694 43.373a4.291 4.291 0 0 1-4.287-4.286c0-.607.13-1.205.377-1.754l2.151-.004a2.48 2.48 0 0 0-.729 1.758 2.49 2.49 0 0 0 2.488 2.487 2.49 2.49 0 0 0 2.487-2.487 2.48 2.48 0 0 0-.736-1.764l2.152-.004a4.29 4.29 0 0 1 .383 1.768 4.291 4.291 0 0 1-4.286 4.286z"/>
            <path fill="#FFF" d="M47.326 39.986a.9.9 0 0 1 0-1.799.9.9 0 0 1 0 1.8z"/>
        </g>
    </g>
</svg>
