<?xml version="1.0" encoding="UTF-8"?>
<svg width="36px" height="38px" viewBox="0 0 36 38" version="1.1" xmlns="http://www.w3.org/2000/svg" xmlns:xlink="http://www.w3.org/1999/xlink">
    <!-- Generator: Sketch 42 (36781) - http://www.bohemiancoding.com/sketch -->
    <title>Timing</title>
    <desc>Created with Sketch.</desc>
    <defs></defs>
    <g id="Page-1" stroke="none" stroke-width="1" fill="none" fill-rule="evenodd" opacity="0.319999993">
        <g id="Outlet-Manager_Time_Pre-Order" transform="translate(-334.000000, -238.000000)" fill="#000000">
            <g id="Daily-Timing" transform="translate(272.000000, 186.000000)">
                <g id="Timing" transform="translate(62.000000, 52.000000)">
                    <g id="Capa_1">
                        <g id="Group">
                            <path d="M19.0142069,23.5793793 C19.6603448,23.5291034 20.2493793,23.1995172 20.6317241,22.6737931 L26.4432414,14.6395862 C26.6213793,14.3931724 26.5946897,14.0530345 26.3786897,13.8370345 C26.1626897,13.6216552 25.8225517,13.5949655 25.5761379,13.7724828 L17.5406897,19.5858621 C17.0168276,19.9669655 16.6872414,20.556 16.6369655,21.2021379 C16.5866897,21.8482759 16.8206897,22.4807586 17.2781379,22.9382069 C17.6946207,23.3553103 18.2563448,23.5862069 18.8404138,23.5862069 C18.8981379,23.5862069 18.9558621,23.5837241 19.0142069,23.5793793 Z M17.8746207,21.2989655 C17.8963448,21.0153103 18.0415862,20.7564828 18.27,20.5901379 L23.1715862,17.0441379 L19.6268276,21.9444828 C19.4592414,22.1747586 19.2004138,22.3193793 18.9167586,22.3417241 C18.6343448,22.3603448 18.3568966,22.2622759 18.1551724,22.0605517 C17.9553103,21.860069 17.8522759,21.582 17.8746207,21.2989655 Z" id="Shape"></path>
                            <path d="M32.9176552,12.1431724 C32.9114483,12.1301379 32.9114483,12.1164828 32.9046207,12.1034483 C32.8971724,12.0910345 32.8853793,12.0842069 32.8773103,12.0724138 C32.2497931,10.9961379 31.5074483,9.99496552 30.6645517,9.08751724 L31.9977931,7.75489655 L32.8754483,8.63255172 L35.5084138,5.99896552 L32.8754483,3.366 L30.2418621,5.99896552 L31.1201379,6.87724138 L29.7868966,8.20986207 C28.8794483,7.36696552 27.8788966,6.624 26.802,5.99648276 C26.7902069,5.98841379 26.7833793,5.97662069 26.7709655,5.96917241 C26.757931,5.96172414 26.7442759,5.96234483 26.7312414,5.95551724 C24.8114483,4.84944828 22.6545517,4.11268966 20.3548966,3.84268966 L20.3548966,3.10344828 L21.285931,3.10344828 C22.1418621,3.10344828 22.8376552,2.40765517 22.8376552,1.55172414 C22.8376552,0.695793103 22.1412414,0 21.2853103,0 L15.6991034,0 C14.8431724,0 14.1473793,0.695793103 14.1473793,1.55172414 C14.1473793,2.40765517 14.8431724,3.10344828 15.6991034,3.10344828 L16.6301379,3.10344828 L16.6301379,3.82096552 C15.9597931,3.89234483 15.2906897,4.00158621 14.6290345,4.15303448 C14.2951034,4.22937931 14.085931,4.56268966 14.1628966,4.89662069 C14.2392414,5.23055172 14.5725517,5.44034483 14.9064828,5.36275862 C15.4775172,5.2317931 16.0541379,5.13310345 16.632,5.06668966 L17.298,5.01517241 C17.5015862,4.99965517 17.6890345,4.98848276 17.8715172,4.9797931 L17.8715172,6.20689655 C17.8715172,6.55013793 18.1489655,6.82758621 18.4922069,6.82758621 C18.8354483,6.82758621 19.1128966,6.55013793 19.1128966,6.20689655 L19.1128966,4.98413793 C21.4473103,5.09151724 23.6470345,5.71841379 25.6028276,6.75 L24.9908276,7.80951724 C24.8195172,8.10682759 24.9213103,8.48606897 25.218,8.65737931 C25.3154483,8.71386207 25.4222069,8.74055172 25.5277241,8.74055172 C25.7424828,8.74055172 25.9510345,8.62944828 26.0658621,8.4302069 L26.676,7.37317241 C28.6181379,8.60524138 30.267931,10.2550345 31.5,12.1971724 L30.4429655,12.8073103 C30.1468966,12.9786207 30.0451034,13.3578621 30.2170345,13.6551724 C30.3324828,13.8544138 30.5404138,13.9655172 30.7551724,13.9655172 C30.8606897,13.9655172 30.9674483,13.9388276 31.0648966,13.8823448 L32.1244138,13.2703448 C33.1702759,15.254069 33.7990345,17.4897931 33.8927586,19.8614483 L32.6668966,19.8614483 C32.3236552,19.8614483 32.0462069,20.1388966 32.0462069,20.4821379 C32.0462069,20.8253793 32.3236552,21.1028276 32.6668966,21.1028276 L33.8927586,21.1028276 C33.7990345,23.4744828 33.1702759,25.7102069 32.1244138,27.693931 L31.0648966,27.081931 C30.7682069,26.9106207 30.3883448,27.0111724 30.2170345,27.3091034 C30.0457241,27.6064138 30.1475172,27.9856552 30.4442069,28.1569655 L31.5012414,28.7671034 C30.2691724,30.7092414 28.6193793,32.3590345 26.6772414,33.5911034 L26.0671034,32.534069 C25.8951724,32.2361379 25.5146897,32.1349655 25.2192414,32.3068966 C24.921931,32.4782069 24.8201379,32.858069 24.992069,33.1547586 L25.604069,34.2142759 C23.6482759,35.2458621 21.4485517,35.8727586 19.1141379,35.9801379 L19.1141379,34.7586207 C19.1141379,34.4153793 18.8366897,34.137931 18.4934483,34.137931 C18.1502069,34.137931 17.8727586,34.4153793 17.8727586,34.7586207 L17.8727586,35.9851034 C16.8815172,35.9509655 15.8871724,35.8268276 14.9083448,35.6021379 C14.5744138,35.522069 14.2411034,35.7343448 14.1647586,36.0682759 C14.0877931,36.4022069 14.2969655,36.7355172 14.6308966,36.8118621 C15.8697931,37.0973793 17.1353793,37.2413793 18.3910345,37.2413793 C18.4214483,37.2413793 18.4506207,37.2395172 18.4810345,37.2388966 C18.4853793,37.2388966 18.4884828,37.2413793 18.4922069,37.2413793 C18.4971724,37.2413793 18.5015172,37.2382759 18.5064828,37.2382759 C21.4901379,37.2177931 24.2894483,36.4121379 26.7113793,35.0205517 C26.7306207,35.0118621 26.7511034,35.0075172 26.7697241,34.9963448 C26.7821379,34.9888966 26.7889655,34.9771034 26.8007586,34.9690345 C29.3077241,33.507931 31.4025517,31.4155862 32.8667586,28.9104828 C32.8785517,28.8937241 32.8934483,28.8806897 32.904,28.862069 C32.9114483,28.8490345 32.9108276,28.8353793 32.9170345,28.8223448 C34.3346897,26.3644138 35.1496552,23.517931 35.1496552,20.4827586 C35.1496552,17.4475862 34.3346897,14.6011034 32.9176552,12.1431724 Z M32.8748276,5.12131034 L33.7524828,5.99896552 L32.8748276,6.87724138 L31.9965517,5.99896552 L32.8748276,5.12131034 Z M17.8715172,3.73717241 L17.8715172,1.86206897 L15.6991034,1.86206897 C15.5284138,1.86206897 15.3887586,1.72241379 15.3887586,1.55172414 C15.3887586,1.38103448 15.5284138,1.24137931 15.6991034,1.24137931 L21.2853103,1.24137931 C21.456,1.24137931 21.5956552,1.38103448 21.5956552,1.55172414 C21.5956552,1.72241379 21.456,1.86206897 21.2853103,1.86206897 L19.1128966,1.86206897 L19.1128966,3.73717241 C18.8968966,3.72848276 18.6908276,3.72413793 18.4922069,3.72413793 C18.4748276,3.72413793 18.4549655,3.72537931 18.4375862,3.72537931 C18.422069,3.72537931 18.4065517,3.72413793 18.3910345,3.72413793 C18.2892414,3.72413793 18.1874483,3.73096552 18.0856552,3.73282759 C18.0136552,3.73468966 17.946,3.73406897 17.8715172,3.73717241 Z" id="Shape"></path>
                            <path d="M12.906,8.68965517 L9.80255172,8.68965517 C9.45931034,8.68965517 9.18186207,8.96710345 9.18186207,9.31034483 C9.18186207,9.65358621 9.45931034,9.93103448 9.80255172,9.93103448 L12.906,9.93103448 C13.2492414,9.93103448 13.5266897,9.65358621 13.5266897,9.31034483 C13.5266897,8.96710345 13.2492414,8.68965517 12.906,8.68965517 Z" id="Shape"></path>
                            <path d="M12.906,13.0344828 L6.69910345,13.0344828 C6.35586207,13.0344828 6.07841379,13.311931 6.07841379,13.6551724 C6.07841379,13.9984138 6.35586207,14.2758621 6.69910345,14.2758621 L12.906,14.2758621 C13.2492414,14.2758621 13.5266897,13.9984138 13.5266897,13.6551724 C13.5266897,13.311931 13.2492414,13.0344828 12.906,13.0344828 Z" id="Shape"></path>
                            <path d="M12.906,17.3793103 L3.59565517,17.3793103 C3.25241379,17.3793103 2.97496552,17.6567586 2.97496552,18 C2.97496552,18.3432414 3.25241379,18.6206897 3.59565517,18.6206897 L12.906,18.6206897 C13.2492414,18.6206897 13.5266897,18.3432414 13.5266897,18 C13.5266897,17.6567586 13.2492414,17.3793103 12.906,17.3793103 Z" id="Shape"></path>
                            <path d="M12.906,21.7241379 L1.11289655,21.7241379 C0.769655172,21.7241379 0.492206897,22.0015862 0.492206897,22.3448276 C0.492206897,22.688069 0.769655172,22.9655172 1.11289655,22.9655172 L12.906,22.9655172 C13.2492414,22.9655172 13.5266897,22.688069 13.5266897,22.3448276 C13.5266897,22.0015862 13.2492414,21.7241379 12.906,21.7241379 Z" id="Shape"></path>
                            <path d="M12.906,26.0689655 L4.83703448,26.0689655 C4.4937931,26.0689655 4.21634483,26.3464138 4.21634483,26.6896552 C4.21634483,27.0328966 4.4937931,27.3103448 4.83703448,27.3103448 L12.906,27.3103448 C13.2492414,27.3103448 13.5266897,27.0328966 13.5266897,26.6896552 C13.5266897,26.3464138 13.2492414,26.0689655 12.906,26.0689655 Z" id="Shape"></path>
                            <path d="M12.906,30.4137931 L8.56117241,30.4137931 C8.21793103,30.4137931 7.94048276,30.6912414 7.94048276,31.0344828 C7.94048276,31.3777241 8.21793103,31.6551724 8.56117241,31.6551724 L12.906,31.6551724 C13.2492414,31.6551724 13.5266897,31.3777241 13.5266897,31.0344828 C13.5266897,30.6912414 13.2492414,30.4137931 12.906,30.4137931 Z" id="Shape"></path>
                        </g>
                    </g>
                </g>
            </g>
        </g>
    </g>
</svg>